<?xml version="1.0" encoding="UTF-8" standalone="no" ?>
<!DOCTYPE svg PUBLIC "-//W3C//DTD SVG 1.1//EN" "http://www.w3.org/Graphics/SVG/1.1/DTD/svg11.dtd">
<svg xmlns="http://www.w3.org/2000/svg" xmlns:xlink="http://www.w3.org/1999/xlink" version="1.1" width="500" height="500" viewBox="0 0 500 500" xml:space="preserve">
<desc>Created with Fabric.js 4.6.0</desc>
<defs>
</defs>
<g transform="matrix(0.86 0 0 0.86 250 250)" id="FSsNbc93susQNk1jztjsy"  >
<path style="stroke: rgb(0,0,0); stroke-opacity: 0; stroke-width: 1; stroke-dasharray: none; stroke-linecap: butt; stroke-dashoffset: 0; stroke-linejoin: miter; stroke-miterlimit: 4; fill: rgb(72,136,122); fill-rule: nonzero; opacity: 0.43;" vector-effect="non-scaling-stroke"  transform=" translate(-639.91, -639.19)" d="M 497 744 C 497 744 563 723.28 563 723.28 C 563 723.28 611 710 611 710 C 610.65 708.5 610.59 707.06 609.26 705.99 C 606.45 703.72 593.68 706.39 591.33 697.96 C 589.33 690.81 597.56 686.53 603 684.54 C 603 684.54 652 671 652 671 C 652 671 652 669 652 669 C 640.11 666.11 629.35 670.29 609 665 C 611.9 656.97 620.53 657.55 628 655.88 C 639.48 653.32 668.6 649.33 679.72 650.56 C 686.56 651.31 695.21 652.71 696.71 661 C 697.75 666.73 694.11 671.22 690 674.67 C 682.23 681.19 667.91 685.87 658 688 C 654.88 688.67 647.79 689.98 645.53 692 C 640.27 696.71 645.92 701.51 646.79 706 C 647.54 709.85 644.83 713.82 643 717 C 643 717 713 707.28 713 707.28 C 730.62 705.17 750.26 703.97 768 704 C 779.92 704.02 791.28 706.42 803 708 C 803 708 807.28 694 807.28 694 C 810.54 683.19 813.86 668.26 814 657 C 814 657 814 622 814 622 C 813.91 603.02 805.73 574.97 797.25 558 C 789.36 542.23 774.13 519.9 761 508.42 C 738.22 488.52 717.32 474.79 688 466.43 C 607.31 443.4 523.56 481.08 484.53 555 C 474.77 573.49 466.25 602.02 466 623 C 465.83 637.58 465.36 654.72 467.29 669 C 469.86 688.12 476.75 709.04 485.89 726 C 485.89 726 497 744 497 744 Z M 524 506 C 524 506 524 507 524 507 C 524 507 523 506 523 506 C 523 506 524 506 524 506 Z M 675 570.08 C 682.2 572.04 690.65 570.9 698 570.08 C 698 570.08 724 567.91 724 567.91 C 724 567.91 734 567 734 567 C 741.46 566.92 759.27 566.35 760.76 576.01 C 761.67 581.9 757.72 585.6 753 588.2 C 745.96 592.08 730.15 596.31 722 598 C 722 598 688 606.85 688 606.85 C 652.47 616.32 617.86 628.39 583 640 C 583 640 584 641 584 641 C 584 641 583 643 583 643 C 593.45 642.99 603.68 640.58 614 639.13 C 631.13 636.73 653.92 634 671 634 C 667.32 636.95 663.54 637.11 659 638 C 659 638 633.96 642.41 633.96 642.41 C 633.96 642.41 550 660.6 550 660.6 C 550 660.6 522 664.82 522 664.82 C 518.78 665.04 513.99 664.54 512.84 660.87 C 511.57 656.78 516.12 652.96 519 650.88 C 524.01 647.26 538.71 640.85 545 638.15 C 545 638.15 603 616.08 603 616.08 C 603 616.08 613 612.95 613 612.95 C 613 612.95 662 596 662 596 C 652.75 593.37 630.82 597.86 621 600.12 C 603.23 604.21 561.21 614.81 545 615 C 537.93 615.08 525.05 615.64 518.83 612.7 C 507.23 607.21 507.47 595.08 517.01 587.53 C 524.23 581.82 537.15 577.01 546 574.28 C 549.23 573.29 560.69 569.75 562.85 568.16 C 567.41 564.81 565.46 559.78 566.21 555 C 566.99 550.07 569.65 547.3 574 545.14 C 580.26 542.02 599 539.4 607 537.8 C 632.33 532.73 663.29 527.96 689 528 C 698.47 528.01 712.37 529.93 712.95 542 C 713.07 544.35 712.87 546.8 712 549 C 711.21 551 709.79 553.11 708.32 554.67 C 704.25 559.03 694.73 561.66 689 563.69 C 689 563.69 675 570.08 675 570.08 Z M 658 625.92 C 660.9 621.69 669.13 620.29 674 618.67 C 680.14 616.62 693.84 612.82 700 612.17 C 705.71 611.57 708.76 612.9 712 612.73 C 715.17 612.56 722.76 609.79 726 608.34 C 731.72 606.44 744.87 600.31 748.64 608.34 C 753.35 617.83 734.69 620.09 729 621.71 C 719.5 624.41 709.84 625.95 700 626.68 C 693.34 627.17 690.05 624.01 684 624.06 C 684 624.06 669 625.92 669 625.92 C 669 625.92 658 625.92 658 625.92 Z M 523 770 C 525.03 776.76 533.42 781.83 539 785.85 C 554.84 797.23 574.26 806.56 593 812 C 655.15 830.04 721.59 810.77 766.03 764 C 776.88 752.58 794.71 730.03 799 715 C 767.21 709.3 732.57 713.88 701 719.58 C 674.85 724.29 648.58 730.54 623 737.75 C 623 737.75 615 740.41 615 740.41 C 615 740.41 607 742.16 607 742.16 C 607 742.16 584 749.02 584 749.02 C 584 749.02 523 770 523 770 Z" stroke-linecap="round" />
</g>
</svg>